# xmcd CD database file
#
# Track frame offsets:
#	183
#	44610
#	66615
#	100015
#	132475
#	163653
#	190958
#	228638
#	272898
#
# Disc length: 3852 seconds
#
# Revision: 0
# Processed by: cddbd v1.5.2PL0 Copyright (c) Steve Scherf et al.
# Submitted via: CDex 1.70beta2
#
DISCID=8b0f0a09
DTITLE=Tim Sund Quartet - About Time
DYEAR=1993
DGENRE=Jazz
TTITLE0=about time to begin
TTITLE1=dr. dee dee
TTITLE2=waltz for the night
TTITLE3=yours
TTITLE4=adventures
TTITLE5=levrette
TTITLE6=turn over the musket
TTITLE7=retrospective
TTITLE8=darn that dream
EXTD=YEAR: 1993
EXTT0=
EXTT1=
EXTT2=
EXTT3=
EXTT4=
EXTT5=
EXTT6=
EXTT7=
EXTT8=
PLAYORDER=
